<?xml version="1.0" standalone="no"?>
<!DOCTYPE svg PUBLIC "-//W3C//DTD SVG 20010904//EN"
 "http://www.w3.org/TR/2001/REC-SVG-20010904/DTD/svg10.dtd">
<svg version="1.0" xmlns="http://www.w3.org/2000/svg"
 width="761.000000pt" height="235.000000pt" viewBox="0 0 761.000000 235.000000"
 preserveAspectRatio="xMidYMid meet">

<g transform="translate(0.000000,235.000000) scale(0.100000,-0.100000)"
fill="#000000" stroke="none">
<path d="M0 1175 l0 -1175 185 2 185 3 111 228 c61 126 108 232 104 235 -10
10 -382 -182 -444 -228 -29 -23 -59 -39 -67 -36 -54 21 49 91 357 244 l216
107 187 374 c103 205 185 375 183 378 -3 2 -58 -12 -123 -31 -136 -40 -400
-106 -425 -106 -23 0 -41 24 -33 44 9 25 84 75 269 181 292 168 411 227 453
223 34 -3 37 -6 40 -35 2 -19 -9 -60 -26 -102 -17 -39 -26 -71 -21 -71 17 0
359 131 529 202 91 38 185 72 208 75 41 6 44 5 40 -16 -2 -18 -19 -27 -88 -51
-47 -15 -122 -45 -168 -65 -85 -37 -429 -169 -517 -199 l-50 -16 -192 -373
c-105 -204 -188 -373 -183 -375 4 -2 88 29 186 68 206 83 402 151 529 186 75
20 92 22 103 10 11 -11 9 -18 -13 -42 -45 -48 -88 -165 -65 -179 15 -9 116 40
167 81 37 30 103 112 103 128 0 2 -16 10 -35 16 -45 15 -68 46 -54 72 13 24
68 58 95 58 28 0 64 -36 64 -64 0 -21 5 -24 65 -29 85 -6 109 -26 102 -80 -7
-50 -43 -123 -113 -228 -67 -100 -105 -142 -117 -130 -11 11 1 33 92 181 69
111 101 183 87 197 -3 4 -33 9 -65 11 l-58 4 -30 -53 c-55 -96 -143 -171 -238
-204 -112 -38 -153 22 -101 148 l24 59 -25 -7 c-91 -22 -692 -251 -739 -280
-19 -12 -273 -502 -263 -508 2 -1 1618 -1 3592 1 l3587 3 0 1169 0 1170 -3805
0 -3805 0 0 -1175z m4630 381 c0 -8 -38 -83 -85 -167 -47 -84 -83 -155 -80
-158 3 -2 159 -8 346 -12 324 -7 379 -12 355 -36 -4 -5 -173 -9 -374 -11
l-367 -3 -77 -142 c-42 -78 -93 -176 -112 -218 -34 -74 -56 -159 -41 -159 12
0 84 68 169 160 43 47 85 89 93 94 23 13 37 -8 24 -33 -10 -18 -9 -21 9 -21
12 0 41 5 66 11 34 9 47 9 60 -1 13 -12 10 -19 -28 -57 -60 -61 -33 -57 134
22 76 36 147 65 158 65 32 0 50 -11 50 -31 0 -24 7 -24 82 2 76 25 92 21 83
-23 l-7 -33 23 22 c40 36 78 46 106 28 13 -9 29 -27 35 -41 10 -22 17 -25 42
-20 17 4 57 22 90 42 36 21 63 31 68 26 6 -6 -3 -34 -22 -72 -56 -111 -27
-111 153 -4 97 58 119 67 162 68 43 1 50 -2 50 -19 0 -15 -10 -21 -40 -27 -40
-8 -105 -56 -105 -77 0 -19 78 -12 142 13 100 38 235 104 266 131 36 30 78 41
97 25 22 -18 19 -27 -15 -39 -28 -9 -90 -51 -77 -51 3 0 26 9 52 20 61 26 72
25 124 -10 24 -17 51 -30 59 -30 8 0 50 16 94 36 55 25 83 33 90 26 15 -15
-34 -59 -97 -88 -66 -31 -116 -31 -163 1 -20 14 -42 25 -48 25 -7 0 -42 -13
-79 -30 -76 -34 -97 -37 -119 -15 -14 14 -19 14 -55 -4 -67 -35 -187 -71 -233
-71 -46 0 -88 22 -88 46 0 19 0 19 -79 -21 -113 -58 -183 -43 -168 35 6 27 6
27 -32 17 -51 -14 -89 -2 -109 33 -9 17 -21 30 -26 30 -5 0 -40 -23 -78 -52
-56 -41 -74 -49 -87 -41 -17 11 -20 45 -6 76 7 17 6 17 -36 0 -61 -25 -70 -32
-103 -81 -37 -54 -101 -112 -124 -112 -48 0 -55 57 -17 138 14 30 21 52 17 50
-141 -73 -226 -94 -252 -63 -11 13 -11 23 -3 45 10 28 10 28 -21 27 -17 0 -36
1 -42 4 -7 2 -38 -27 -71 -66 -97 -116 -174 -160 -211 -123 -16 16 -15 77 3
127 8 22 12 41 9 41 -2 0 -31 -13 -64 -30 -147 -74 -281 -99 -320 -60 -11 11
-20 25 -20 30 0 6 -14 3 -32 -6 -101 -52 -221 -70 -250 -36 -9 9 -18 26 -20
37 -3 21 -107 -234 -161 -398 -17 -55 -36 -100 -42 -100 -45 -7 33 241 200
638 16 38 13 36 -66 -44 -93 -94 -180 -155 -234 -165 -109 -21 -109 60 0 163
53 50 91 68 120 57 39 -15 -5 -82 -100 -155 -25 -19 -22 -18 23 5 74 39 206
166 280 269 35 50 105 175 161 289 103 210 130 254 149 242 24 -15 10 -61 -65
-204 -104 -200 -136 -267 -190 -391 -70 -164 -69 -160 -24 -113 71 73 152 96
159 44 6 -42 -92 -126 -134 -116 -18 5 -24 2 -24 -10 0 -43 133 -4 292 86 94
53 149 62 156 25 4 -17 -2 -21 -50 -31 -32 -7 -88 -53 -88 -72 0 -37 106 -9
280 73 l105 50 78 151 c43 84 76 156 72 162 -4 6 -89 10 -230 10 -228 0 -262
6 -220 37 15 10 73 13 256 13 l237 0 45 83 c99 182 147 257 167 257 11 0 20
-6 20 -14z m-2980 -549 c0 -19 -87 -100 -99 -93 -14 9 -13 37 2 56 32 41 97
66 97 37z m3900 -42 c0 -18 -56 -49 -76 -41 -18 7 -18 21 2 40 20 21 74 21 74
1z m-2952 -67 c19 -19 15 -26 -22 -38 -18 -6 -42 -20 -51 -30 -23 -25 -14 -25
35 0 52 27 67 25 120 -11 52 -35 68 -34 164 11 73 34 86 36 86 16 0 -19 -52
-59 -110 -85 -61 -28 -107 -27 -152 4 -20 14 -42 25 -48 25 -6 0 -43 -13 -82
-30 -82 -35 -103 -37 -120 -10 -7 11 -24 20 -37 20 -14 0 -34 9 -46 20 -21 20
-22 20 -46 2 -40 -32 -87 -52 -103 -46 -9 3 -19 17 -22 30 -8 30 -15 30 -70
-2 -72 -43 -91 -20 -52 61 23 48 46 58 55 24 4 -14 11 -18 22 -13 44 18 59 16
77 -13 10 -15 19 -30 20 -31 2 -2 23 10 48 27 52 36 72 38 102 10 l22 -20 48
23 c27 12 64 33 83 45 38 26 61 29 79 11z"/>
<path d="M4801 747 c-18 -22 -42 -87 -32 -87 15 0 73 79 66 90 -8 14 -20 13
-34 -3z"/>
<path d="M1029 1527 c-199 -102 -498 -277 -474 -277 19 0 310 79 414 112 l104
33 38 85 c21 47 38 88 38 93 2 14 -17 7 -120 -46z"/>
<path d="M1705 920 c-3 -5 0 -10 9 -10 8 0 21 -3 30 -6 11 -4 16 -1 16 10 0
18 -45 23 -55 6z"/>
</g>
</svg>
